<svg width="150" height="150" viewBox="0 0 150 150" fill="none" xmlns="http://www.w3.org/2000/svg">
<circle cx="75" cy="75" r="75" fill="#4F7D3F"/>
<path d="M75 94.625C56.7675 94.625 42 102.009 42 111.125V119.375H108V111.125C108 102.009 93.2325 94.625 75 94.625ZM58.5 69.875C58.5 74.2511 60.2384 78.4479 63.3327 81.5423C66.4271 84.6366 70.6239 86.375 75 86.375C79.3761 86.375 83.5729 84.6366 86.6673 81.5423C89.7616 78.4479 91.5 74.2511 91.5 69.875M72.9375 41C71.7 41 70.875 41.8663 70.875 43.0625V55.4375H66.75V45.125C66.75 45.125 57.4688 48.6725 57.4688 60.5938C57.4688 60.5938 54.375 61.1712 54.375 65.75H95.625C95.4188 61.1712 92.5312 60.5938 92.5312 60.5938C92.5312 48.6725 83.25 45.125 83.25 45.125V55.4375H79.125V43.0625C79.125 41.8663 78.3413 41 77.0625 41H72.9375Z" fill="white"/>
</svg>
