<svg width="150" height="150" viewBox="0 0 150 150" fill="none" xmlns="http://www.w3.org/2000/svg">
<circle cx="75" cy="75" r="75" fill="#4F7D3F"/>
<path d="M57.8 96.9H66.4V92.6H70.7C73.065 92.6 75 90.665 75 88.3V75.4C75 73.035 73.065 71.1 70.7 71.1H57.8V66.8H75V58.2H66.4V53.9H57.8V58.2H53.5C51.135 58.2 49.2 60.135 49.2 62.5V75.4C49.2 77.765 51.135 79.7 53.5 79.7H66.4V84H49.2V92.6H57.8V96.9ZM109.4 41H40.6C35.827 41 32.043 44.827 32.043 49.6L32 101.2C32 105.973 35.827 109.8 40.6 109.8H109.4C114.173 109.8 118 105.973 118 101.2V49.6C118 44.827 114.173 41 109.4 41ZM109.4 101.2H40.6V49.6H109.4V101.2ZM83.6 66.8L92.2 58.2L100.8 66.8M100.8 85.075L92.2 93.675L83.6 85.075" fill="white"/>
</svg>
