<svg width="150" height="150" viewBox="0 0 150 150" fill="none" xmlns="http://www.w3.org/2000/svg">
<circle cx="75" cy="75" r="75" fill="#4F7D3F"/>
<path d="M129 42.0002L110.61 59.3553L128.201 88.964L129 87.9713V42.0002ZM23 42.2534V92.5573C23.9976 92.6869 25.1964 92.7584 26.406 92.7711C29.0493 92.7989 31.2281 92.6264 32.452 92.5163L44.1777 62.8464L23 42.2534ZM109.66 65.6046L108.093 66.6192C108.059 66.6408 106.899 67.3621 106.558 67.5745L104.196 69.0042L104.229 69.0242C103.135 69.705 102.831 69.8965 101.589 70.6677C100.959 71.0589 100.943 71.0681 100.345 71.4393C95.8271 69.0104 90.9244 67.1436 85.2031 65.6756C78.0075 67.8495 70.3849 70.9952 62.7734 73.9468C65.9333 77.7518 69.4451 78.9909 72.9826 79.0352C77.0845 79.0864 81.2777 77.3027 84.1656 75.3043L85.8135 74.1641L87.4671 76.5535L113.177 95.1102L123.223 88.4324L109.66 65.6046ZM47.1566 66.2148L37.0539 91.7766L40.7617 94.6277L47.6194 86.8547L48.1688 86.2323L48.9972 86.1806C49.3312 86.1597 49.6608 86.1499 49.9859 86.1517C52.26 86.1664 54.2932 86.7565 55.8181 88.1024C56.9476 89.0983 57.6985 90.4242 58.1341 91.9594L58.6418 91.9278C61.313 91.7608 63.7196 92.3119 65.4628 93.8496C67.2058 95.3877 68.0527 97.7072 68.2197 100.379L68.2353 100.619C69.6694 100.89 70.9532 101.455 71.9972 102.376C73.7404 103.914 74.587 106.233 74.7541 108.904L74.7979 109.599C74.9402 109.644 75.0813 109.693 75.221 109.746L75.6738 109.11L76.8919 107.401L77.5183 106.521L79.1506 107.684L92.3846 117.112C93.824 116.757 94.6821 116.204 95.1593 115.534C95.6374 114.863 95.8792 113.87 95.7436 112.392L79.8752 101.029L78.2456 99.8617L79.4014 98.2481L80.8867 96.1627L82.519 97.3258L100.409 110.069C101.848 109.715 102.707 109.162 103.184 108.492C103.662 107.821 103.903 106.831 103.769 105.356L83.1926 90.7584L81.5581 89.5982L83.8772 86.3292L85.5124 87.4889L106.092 102.09C107.533 101.735 108.392 101.182 108.87 100.511C109.348 99.8397 109.59 98.8463 109.453 97.3656L84.8592 79.6151C81.5957 81.5498 77.421 83.0997 72.9327 83.0436C67.6801 82.9779 62.0617 80.468 57.9286 74.1249C57.7651 73.8741 57.6599 73.5898 57.6207 73.293C57.5815 72.9961 57.6093 72.6943 57.7021 72.4096C57.7948 72.125 57.9502 71.8647 58.1568 71.6479C58.3633 71.4312 58.6158 71.2635 58.8957 71.1571C61.7938 70.0559 64.7219 68.8924 67.657 67.738L47.1571 66.2161L47.1566 66.2148ZM50.0298 90.1806L39.4378 102.186C39.6442 103.688 40.1148 104.622 40.7488 105.182C41.3828 105.741 42.3688 106.091 43.8851 106.109L54.4769 94.1043C54.2704 92.6019 53.7999 91.667 53.1659 91.1076C52.5319 90.5482 51.5461 90.1982 50.0296 90.1808L50.0298 90.1806ZM59.674 95.9282L47.7127 109.485C47.9189 110.988 48.3897 111.923 49.0234 112.482C49.6581 113.041 50.6435 113.391 52.16 113.409L64.1213 99.8517C63.9151 98.349 63.4443 97.4146 62.8103 96.855C62.1766 96.2956 61.1907 95.9453 59.6742 95.9277L59.674 95.9282ZM66.2077 104.454L55.6166 116.459C55.823 117.961 56.2936 118.896 56.9276 119.456C57.5618 120.015 58.5476 120.365 60.0639 120.383L70.6555 108.379C70.449 106.876 69.9785 105.941 69.3445 105.381C68.7105 104.822 67.7247 104.472 66.2081 104.454L66.2077 104.454ZM71.7086 113.169L63.0696 123.03C63.2755 124.535 63.7461 125.471 64.3808 126.031C65.0143 126.59 65.999 126.94 67.5133 126.958L76.1528 117.097C75.9466 115.592 75.4758 114.657 74.8411 114.096C74.2078 113.538 73.2231 113.188 71.7088 113.17L71.7086 113.169ZM79.5788 114.236C79.9561 115.265 80.1741 116.405 80.25 117.619L80.3017 118.444L78.4585 120.548L84.4096 124.787C85.8491 124.432 86.7069 123.88 87.1843 123.209C87.662 122.539 87.9043 121.547 87.7696 120.071L79.5791 114.237L79.5788 114.236Z" fill="white"/>
</svg>
