<svg width="150" height="150" viewBox="0 0 150 150" fill="none" xmlns="http://www.w3.org/2000/svg">
<circle cx="75" cy="75" r="75" fill="#4F7D3F"/>
<path d="M36 70.1011C36 48.5056 53.5056 31 75.1011 31C96.6967 31 114.202 48.5056 114.202 70.1011V90.2538C114.202 96.6899 108.65 101.382 102.472 101.382H90.7416V70.1011H106.382C106.382 61.8049 103.086 53.8485 97.2201 47.9822C91.3538 42.1159 83.3973 38.8202 75.1011 38.8202C66.8049 38.8202 58.8485 42.1159 52.9822 47.9822C47.1159 53.8485 43.8202 61.8049 43.8202 70.1011H59.4607V101.382H51.8868C52.3203 103.061 53.2996 104.548 54.6706 105.61C56.0416 106.672 57.7266 107.248 59.4607 107.247H65.5761C66.8117 105.476 68.8645 104.315 71.191 104.315H79.0112C80.826 104.315 82.5665 105.036 83.8498 106.319C85.133 107.602 85.8539 109.343 85.8539 111.157C85.8539 112.972 85.133 114.713 83.8498 115.996C82.5665 117.279 80.826 118 79.0112 118H71.191C68.8645 118 66.8117 116.839 65.5761 115.067H59.4607C55.5424 115.068 51.7667 113.598 48.8805 110.948C45.9943 108.297 44.208 104.661 43.875 100.756C39.4174 99.2823 36 95.3057 36 90.2578V70.1011ZM51.6404 93.5618V77.9213H43.8202V90.2538C43.8202 91.7905 45.267 93.5618 47.7303 93.5618H51.6404ZM106.382 77.9213H98.5618V93.5618H102.472C104.935 93.5618 106.382 91.7905 106.382 90.2538V77.9213Z" fill="white"/>
</svg>
