<svg width="82" height="67" viewBox="0 0 82 67" fill="none" xmlns="http://www.w3.org/2000/svg">
<path d="M7.44444 33.5C3.35 33.5 0 30.15 0 26.0556V7.44444C0 3.35 3.35 0 7.44444 0H37.2222C41.3167 0 44.6667 3.35 44.6667 7.44444V26.0556C44.6667 30.15 41.3167 33.5 37.2222 33.5H29.7778V44.6667L18.6111 33.5H7.44444ZM74.4444 55.8333C78.5389 55.8333 81.8889 52.4833 81.8889 48.3889V29.7778C81.8889 25.6833 78.5389 22.3333 74.4444 22.3333H52.1111V26.0556C52.1111 34.2444 45.4111 40.9444 37.2222 40.9444V48.3889C37.2222 52.4833 40.5722 55.8333 44.6667 55.8333H52.1111V67L63.2778 55.8333H74.4444Z" fill="#4F7D3F"/>
</svg>
