<svg width="80" height="81" viewBox="0 0 80 81" fill="none" xmlns="http://www.w3.org/2000/svg">
<path d="M4.96302 25.7526V56.6557H14.8891V61.8063H0V5.15052H9.92604V0H14.8891V5.15052H44.6672V0H49.6302V5.15052H59.5563V30.9031H54.5932V25.7526H4.96302ZM9.92604 10.301H4.96302V20.6021H54.5932V10.301H49.6302V15.4516H44.6672V10.301H14.8891V15.4516H9.92604V10.301ZM79.4084 43.6185C79.4084 44.155 79.305 44.6781 79.0982 45.1878C78.8914 45.6975 78.5941 46.1535 78.2064 46.5559C72.8298 52.1356 67.5049 57.6885 62.2316 63.2146C56.9584 68.7407 51.6206 74.2668 46.2181 79.7928C45.391 80.5976 44.4216 81 43.3101 81C42.1986 81 41.2551 80.5976 40.4796 79.7928L24.5437 63.2951C24.156 62.9195 23.8587 62.4769 23.6519 61.9672C23.4451 61.4575 23.3417 60.9076 23.3417 60.3174C23.3417 59.1639 23.7424 58.1714 24.5437 57.3398L31.4066 50.2176C32.2079 49.386 33.1644 48.9702 34.2759 48.9702C35.3615 48.9702 36.305 49.386 37.1063 50.2176L43.3101 56.6557L65.6437 33.5186C66.4192 32.7139 67.3627 32.3115 68.4742 32.3115C68.9912 32.3115 69.5082 32.4188 70.0251 32.6334C70.5421 32.848 70.9945 33.1431 71.3822 33.5186L78.2064 40.6408C78.5683 41.0164 78.8526 41.459 79.0594 41.9687C79.2662 42.4784 79.3825 43.0283 79.4084 43.6185ZM34.3146 66.0715L39.8593 60.3174L34.2759 54.5231L28.7312 60.3174L34.3146 66.0715ZM74.0576 43.5782L68.4742 37.7839C63.3302 43.149 58.225 48.4739 53.1586 53.7586C48.0922 59.0432 42.9612 64.3681 37.7655 69.7332C38.6961 70.699 39.6137 71.6647 40.5184 72.6304C41.4231 73.5961 42.3537 74.5619 43.3101 75.5276C48.4799 70.1893 53.611 64.8778 58.7032 59.5931C63.7955 54.3085 68.9136 48.9702 74.0576 43.5782Z" fill="#4F7D3F"/>
</svg>
