<svg width="63" height="77" viewBox="0 0 63 77" fill="none" xmlns="http://www.w3.org/2000/svg">
<path d="M49 7H59.5C60.4283 7 61.3185 7.36875 61.9749 8.02513C62.6313 8.6815 63 9.57174 63 10.5V73.5C63 74.4283 62.6313 75.3185 61.9749 75.9749C61.3185 76.6313 60.4283 77 59.5 77H3.5C2.57174 77 1.6815 76.6313 1.02513 75.9749C0.368749 75.3185 0 74.4283 0 73.5V10.5C0 9.57174 0.368749 8.6815 1.02513 8.02513C1.6815 7.36875 2.57174 7 3.5 7H14V0H21V7H42V0H49V7ZM49 14V21H42V14H21V21H14V14H7V70H56V14H49ZM14 28H49V35H14V28ZM14 42H49V49H14V42Z" fill="#4F7D3F"/>
</svg>
